<?xml version="1.0" standalone="no"?>
<!DOCTYPE svg PUBLIC "-//W3C//DTD SVG 20010904//EN"
 "http://www.w3.org/TR/2001/REC-SVG-20010904/DTD/svg10.dtd">
<svg version="1.0" xmlns="http://www.w3.org/2000/svg"
 width="512.000000pt" height="512.000000pt" viewBox="0 0 512.000000 512.000000"
 preserveAspectRatio="xMidYMid meet">

<g transform="translate(0.000000,512.000000) scale(0.100000,-0.100000)"
fill="#000000" stroke="none">
<path d="M2385 4973 c-158 -33 -315 -122 -423 -240 -35 -37 -83 -90 -107 -116
-26 -28 -68 -59 -102 -75 -57 -26 -61 -27 -273 -27 l-215 0 -90 -32 c-144 -50
-219 -97 -326 -203 -110 -109 -162 -190 -211 -331 l-33 -94 0 -215 c0 -212 -1
-216 -27 -273 -16 -34 -47 -76 -75 -102 -26 -24 -79 -72 -116 -107 -347 -320
-342 -893 10 -1205 125 -110 154 -144 182 -202 25 -55 26 -61 26 -271 1 -245
8 -278 93 -445 38 -74 63 -108 146 -191 83 -83 117 -108 191 -146 167 -85 200
-92 445 -93 212 0 216 -1 273 -27 34 -16 76 -47 102 -75 24 -26 72 -79 107
-116 151 -164 368 -257 598 -257 230 0 447 93 598 257 35 37 83 90 107 116 26
28 68 59 102 75 57 27 60 27 238 24 200 -3 273 7 391 54 116 46 185 93 284
193 78 78 105 113 142 186 85 167 92 199 93 445 0 212 1 216 27 273 16 34 47
76 75 102 26 24 79 72 116 107 342 316 342 880 0 1196 -37 35 -90 83 -116 107
-28 26 -59 68 -75 102 -26 57 -27 61 -27 273 -1 246 -8 278 -93 445 -37 73
-64 108 -142 186 -99 100 -168 147 -284 193 -118 47 -191 57 -391 54 -178 -3
-181 -3 -238 24 -34 16 -76 47 -102 75 -24 26 -72 79 -107 116 -189 205 -494
300 -773 240z m1183 -1519 c122 -51 181 -204 125 -324 -29 -64 -1127 -1242
-1184 -1270 -59 -30 -126 -36 -187 -16 -41 14 -90 52 -259 203 -271 242 -301
271 -324 316 -61 118 -14 263 104 322 63 31 152 34 212 6 22 -10 105 -76 183
-146 l144 -128 33 34 c18 19 225 241 461 494 235 253 438 468 450 478 60 47
170 62 242 31z"/>
</g>
</svg>
